<?xml version="1.0" encoding="utf-8"?>
<!-- Generator: Adobe Illustrator 15.0.0, SVG Export Plug-In . SVG Version: 6.00 Build 0)  -->
<!DOCTYPE svg PUBLIC "-//W3C//DTD SVG 1.1//EN" "http://www.w3.org/Graphics/SVG/1.1/DTD/svg11.dtd">
<svg version="1.1" id="Layer_1" xmlns="http://www.w3.org/2000/svg" xmlns:xlink="http://www.w3.org/1999/xlink" x="0px" y="0px"
	 width="15px" height="15px" viewBox="242.5 242.5 15 15" enable-background="new 242.5 242.5 15 15" xml:space="preserve">
<g>
	<g id="Icon-Envelope" transform="translate(78.000000, 232.000000)">
		<path id="Fill-3" fill="#BEB8B5" d="M179.209,13.987l-0.589-0.589l-5.462,5.461c-0.683,0.683-1.831,0.683-2.514,0l-5.461-5.43
			l-0.59,0.59l4.065,4.064l-4.065,4.065l0.59,0.59l4.065-4.065l0.807,0.807c0.496,0.496,1.148,0.775,1.831,0.775
			s1.335-0.279,1.831-0.775l0.807-0.807l4.065,4.065l0.589-0.59l-4.065-4.065L179.209,13.987"/>
		<path id="Fill-4" fill="#BEB8B5" d="M178.062,23.793h-12.258c-0.714,0-1.304-0.59-1.304-1.303v-8.751
			c0-0.714,0.59-1.303,1.304-1.303h12.258c0.713,0,1.303,0.589,1.303,1.303v8.751C179.364,23.203,178.774,23.793,178.062,23.793
			L178.062,23.793z M165.772,13.273c-0.248,0-0.434,0.186-0.434,0.434v8.751c0,0.248,0.186,0.435,0.434,0.435h12.258
			c0.248,0,0.435-0.187,0.435-0.435v-8.751c0-0.248-0.187-0.434-0.435-0.434H165.772L165.772,13.273z"/>
	</g>
</g>
</svg>
