<?xml version="1.0" encoding="utf-8"?>
<!-- Generator: Adobe Illustrator 15.0.0, SVG Export Plug-In . SVG Version: 6.00 Build 0)  -->
<!DOCTYPE svg PUBLIC "-//W3C//DTD SVG 1.1//EN" "http://www.w3.org/Graphics/SVG/1.1/DTD/svg11.dtd">
<svg version="1.1" id="Layer_1" xmlns="http://www.w3.org/2000/svg" xmlns:xlink="http://www.w3.org/1999/xlink" x="0px" y="0px"
	 width="480px" height="369px" viewBox="0 0 480 369" enable-background="new 0 0 480 369" xml:space="preserve">
<rect fill="#4E4E4E" width="480" height="369"/>
<g>
	<polygon points="155.671,224.951 151.468,230.639 154.753,235.08 156.591,235.08 159.88,230.639 	"/>
	<polygon fill="#F69321" points="181.507,200.761 181.534,200.761 181.534,155.538 181.534,152.733 174.853,152.733 
		174.769,152.853 155.551,178.861 136.578,153.184 136.248,152.733 129.815,152.733 129.815,155.875 129.815,200.761 
		129.834,200.761 151.468,230.639 155.671,224.951 136.578,199.137 136.578,165.028 154.212,188.895 155.551,190.109 
		156.883,188.895 174.769,164.694 174.769,199.137 155.671,224.951 159.88,230.639 	"/>
	<g>
		<g>
			<path fill="#FFFFFF" d="M202.581,221.73h1.491v10.045h-1.491V221.73z"/>
			<path fill="#FFFFFF" d="M211.461,223.784h-0.028v7.991h-1.491V221.73h1.73l6.458,7.991h0.028v-7.991h1.491v10.045h-1.73
				L211.461,223.784z"/>
			<path fill="#FFFFFF" d="M233.02,221.73h1.604l-4.404,10.045h-1.59l-4.474-10.045h1.688l3.615,8.497L233.02,221.73z"/>
			<path fill="#FFFFFF" d="M239.075,221.73h8.075v1.294h-6.584v2.912h6.387v1.295h-6.387v3.25h6.725v1.294h-8.216V221.73z"/>
			<path fill="#FFFFFF" d="M253.135,228.47c0.043,1.801,1.702,2.265,3.236,2.265c1.575,0,2.715-0.619,2.715-1.702
				c0-0.915-0.703-1.28-1.871-1.491l-2.279-0.38c-1.195-0.184-2.982-0.676-2.982-2.631c0-1.843,1.449-3.053,4.023-3.053
				c2.025,0,4.122,0.731,4.277,3.151h-1.492c-0.111-0.774-0.576-1.857-2.982-1.857c-1.083,0-2.335,0.464-2.335,1.646
				c0,0.618,0.408,1.111,1.646,1.322l2.463,0.422c0.787,0.154,3.024,0.507,3.024,2.574c0,2.547-2.294,3.292-4.319,3.292
				c-2.265,0-4.614-0.802-4.614-3.559H253.135z"/>
			<path fill="#FFFFFF" d="M268.137,223.024h-3.799v-1.294h9.089v1.294h-3.799v8.751h-1.491V223.024z"/>
			<path fill="#FFFFFF" d="M288.147,221.73h2.067v10.045h-1.49v-8.328h-0.028l-3.911,8.328h-1.322l-3.897-8.16h-0.028v8.16h-1.49
				V221.73h2.096l3.981,8.328L288.147,221.73z"/>
			<path fill="#FFFFFF" d="M295.906,221.73h8.076v1.294h-6.584v2.912h6.387v1.295h-6.387v3.25h6.725v1.294h-8.217V221.73z"/>
			<path fill="#FFFFFF" d="M310.909,223.784h-0.028v7.991h-1.491V221.73h1.73l6.458,7.991h0.027v-7.991h1.491v10.045h-1.729
				L310.909,223.784z"/>
			<path fill="#FFFFFF" d="M327.572,223.024h-3.799v-1.294h9.089v1.294h-3.799v8.751h-1.491V223.024z"/>
			<path fill="#FFFFFF" d="M338.115,228.47c0.042,1.801,1.701,2.265,3.235,2.265c1.575,0,2.716-0.619,2.716-1.702
				c0-0.915-0.704-1.28-1.871-1.491l-2.279-0.38c-1.196-0.184-2.982-0.676-2.982-2.631c0-1.843,1.449-3.053,4.023-3.053
				c2.025,0,4.121,0.731,4.276,3.151h-1.491c-0.112-0.774-0.576-1.857-2.982-1.857c-1.084,0-2.336,0.464-2.336,1.646
				c0,0.618,0.408,1.111,1.646,1.322l2.462,0.422c0.788,0.154,3.024,0.507,3.024,2.574c0,2.547-2.293,3.292-4.318,3.292
				c-2.266,0-4.615-0.802-4.615-3.559H338.115z"/>
		</g>
	</g>
	<polygon points="241.021,133.92 241.021,134.106 241.16,133.92 	"/>
	<path fill="none" d="M280.119,168.304c-2.113-2.117-4.584-3.794-7.402-5.049c-2.82-1.248-5.799-1.872-8.939-1.872
		c-3.203,0-6.213,0.624-9.033,1.872c-2.82,1.255-5.285,2.932-7.4,5.049c-2.113,2.11-3.779,4.585-4.996,7.4
		c-1.219,2.816-1.829,5.797-1.829,8.938c0,3.2,0.61,6.212,1.829,9.031c1.217,2.82,2.883,5.288,4.996,7.402
		c2.115,2.116,4.58,3.78,7.4,5c2.82,1.219,5.83,1.825,9.033,1.825c3.141,0,6.119-0.606,8.939-1.825c2.818-1.22,5.289-2.884,7.402-5
		c2.115-2.114,3.795-4.582,5.047-7.402c1.248-2.819,1.875-5.831,1.875-9.031c0-3.142-0.627-6.122-1.875-8.938
		C283.914,172.889,282.234,170.414,280.119,168.304z"/>
	<polygon fill="#FFFFFF" points="187.467,231.831 197.464,231.831 197.464,196.559 222.74,196.559 222.74,186.565 197.464,186.565 
		197.464,162.535 227.448,162.535 227.448,152.539 187.467,152.539 	"/>
	<path fill="#FFFFFF" d="M297.033,184.643c0-4.481-0.883-8.748-2.639-12.782c-1.764-4.04-4.15-7.578-7.16-10.626
		c-3.016-3.038-6.537-5.444-10.576-7.204c-4.035-1.758-8.334-2.644-12.881-2.644c-4.549,0-8.826,0.886-12.826,2.644
		c-4.01,1.76-7.533,4.166-10.579,7.204c-3.041,3.048-5.444,6.586-7.205,10.626c-1.764,4.034-2.643,8.301-2.643,12.782
		c0,4.55,0.879,8.84,2.643,12.877c1.761,4.039,4.164,7.562,7.205,10.573c3.045,3.012,6.569,5.399,10.579,7.16
		c4,1.76,8.277,2.642,12.826,2.642c4.48,0,8.748-0.882,12.785-2.642c4.037-1.761,7.572-4.164,10.621-7.208
		c3.043-3.043,5.447-6.566,7.211-10.575C296.15,193.469,297.033,189.192,297.033,184.643z M285.166,193.674
		c-1.252,2.82-2.932,5.288-5.047,7.402c-2.113,2.116-4.584,3.78-7.402,5c-2.82,1.219-5.799,1.825-8.939,1.825
		c-3.203,0-6.213-0.606-9.033-1.825c-2.82-1.22-5.285-2.884-7.4-5c-2.113-2.114-3.779-4.582-4.996-7.402
		c-1.219-2.819-1.829-5.831-1.829-9.031c0-3.142,0.61-6.122,1.829-8.938c1.217-2.815,2.883-5.29,4.996-7.4
		c2.115-2.117,4.58-3.794,7.4-5.049c2.82-1.248,5.83-1.872,9.033-1.872c3.141,0,6.119,0.624,8.939,1.872
		c2.818,1.255,5.289,2.932,7.402,5.049c2.115,2.11,3.795,4.585,5.047,7.4c1.248,2.816,1.875,5.797,1.875,8.938
		C287.041,187.843,286.414,190.854,285.166,193.674z"/>
	<polygon fill="#FFFFFF" points="332.41,152.412 318.182,175.797 303.957,152.539 291.268,152.539 312.604,184.643 291.268,216.744 
		303.764,216.744 318.182,193.096 332.598,216.744 345.186,216.744 323.756,184.643 344.031,152.412 	"/>
	<polygon fill="#F69321" points="350.186,142.639 338.363,142.639 332.41,152.412 344.031,152.412 	"/>
</g>
</svg>
