<?xml version="1.0" encoding="utf-8"?>
<!-- Generator: Adobe Illustrator 15.0.0, SVG Export Plug-In . SVG Version: 6.00 Build 0)  -->
<!DOCTYPE svg PUBLIC "-//W3C//DTD SVG 1.1//EN" "http://www.w3.org/Graphics/SVG/1.1/DTD/svg11.dtd">
<svg version="1.1" id="Capa_1" xmlns="http://www.w3.org/2000/svg" xmlns:xlink="http://www.w3.org/1999/xlink" x="0px" y="0px"
	 width="15px" height="15px" viewBox="242.5 242.5 15 15" enable-background="new 242.5 242.5 15 15" xml:space="preserve">
<g>
	<g>
		<g>
			<path fill="#BEB8B5" d="M256.441,242.45h-12.829c-0.616,0-1.113,0.482-1.113,1.077v12.896c0,0.594,0.497,1.077,1.113,1.077
				h12.829c0.611,0,1.112-0.483,1.112-1.077v-12.896C257.55,242.932,257.053,242.45,256.441,242.45z M247.063,255.047h-2.274v-6.795
				h2.274V255.047z M245.926,247.324h-0.014c-0.763,0-1.256-0.521-1.256-1.176c0-0.665,0.507-1.172,1.287-1.172
				c0.777,0,1.257,0.507,1.271,1.172C247.213,246.803,246.72,247.324,245.926,247.324z M255.262,255.047h-2.274v-3.636
				c0-0.913-0.329-1.536-1.151-1.536c-0.63,0-1,0.42-1.165,0.826c-0.06,0.144-0.077,0.346-0.077,0.549v3.797h-2.274
				c0,0,0.031-6.158,0-6.795h2.274v0.962c0.301-0.462,0.84-1.124,2.047-1.124c1.498,0,2.617,0.97,2.617,3.058L255.262,255.047
				L255.262,255.047z M250.579,249.238c0.004-0.007,0.011-0.014,0.015-0.021v0.021H250.579z"/>
		</g>
	</g>
</g>
</svg>
