<?xml version="1.0" encoding="UTF-8"?>
<svg width="48px" height="48px" viewBox="0 0 48 48" version="1.1" xmlns="http://www.w3.org/2000/svg" xmlns:xlink="http://www.w3.org/1999/xlink">
    <!-- Generator: Sketch 62 (91390) - https://sketch.com -->
    <title>Icons (Decorative)/star</title>
    <desc>Created with Sketch.</desc>
    <g id="Icons-(Decorative)/star" stroke="none" stroke-width="1" fill="none" fill-rule="evenodd">
        <g id="icons8-star_filled" transform="translate(-1.000000, 0.000000)" fill="#FFFFFF">
            <path d="M25,0 C24.5874484,0 24.2174517,0.254002847 24.068359,0.6386719 L17.902344,16.535156 L0.94921875,17.400391 C0.536124409,17.4213013 0.17852458,17.6943523 0.0495446395,18.0873515 C-0.0794353012,18.4803507 0.046820452,18.9122002 0.3671875,19.173828 L13.568359,29.966797 L9.2324219,46.34375 C9.12646963,46.7428009 9.27663058,47.1659433 9.61042698,47.4089402 C9.94422338,47.651937 10.3930345,47.664834 10.740234,47.441406 L25,38.289062 L39.259766,47.441406 C39.6069655,47.6648339 40.0557766,47.6519369 40.3895729,47.4089401 C40.7233693,47.1659432 40.8735302,46.7428009 40.767578,46.34375 L36.431641,29.966797 L49.632812,19.173828 C49.953179,18.9122002 50.0794348,18.4803507 49.9504549,18.0873516 C49.821475,17.6943524 49.4638753,17.4213014 49.050781,17.400391 L32.097656,16.535156 L25.931641,0.6386719 C25.7825483,0.254002847 25.4125516,0 25,0 Z M25,3.7636719 L27.8125,11.017578 C27.3409704,11.1075861 26.9999244,11.5199567 27,12 C27,12.5522847 27.4477153,13 28,13 C28.1850328,12.9992621 28.3662327,12.9472009 28.523438,12.849609 L30.466797,17.861328 C30.609689,18.2291416 30.9554962,18.4785515 31.349609,18.498047 L33.195312,18.591797 C33.3834211,18.8480212 33.6821389,18.9995551 34,19 C34.2819703,18.9998786 34.5507852,18.8807205 34.740234,18.671875 L46.359375,19.265625 L43.974609,21.214844 C43.9908171,21.1443583 43.9993306,21.0723222 44,21 C44,20.4477153 43.5522847,20 43,20 C42.4477153,20 42,20.4477153 42,21 C42,21.5522847 42.4477153,22 43,22 C43.005865,21.9994008 43.0117245,21.9987498 43.017578,21.998047 L40.949219,23.689453 C40.8150195,23.2786785 40.4321399,23.0005788 40,23 C39.4477153,23 39,23.4477153 39,24 C39.0004854,24.3599997 39.1944358,24.6919536 39.507812,24.869141 L37.732422,26.320312 C37.5434312,26.1163578 37.2780553,26.0003003 37,26 C36.4477153,26 36,26.4477153 36,27 C36.0007634,27.2090434 36.067019,27.4125917 36.189453,27.582031 L34.667969,28.826172 C34.5744594,28.9031384 34.4957072,28.9964495 34.435547,29.101562 C34.2998938,29.0352608 34.1509879,29.0005385 34,29 C33.4477153,29 33,29.4477153 33,30 C33,30.5522847 33.4477153,31 34,31 C34.2105948,30.9994876 34.4156524,30.9325023 34.585938,30.808594 L36.521484,38.123047 C36.2003897,38.2980296 36.0004118,38.6343222 36,39 C36,39.5522847 36.4477153,40 37,40 C37.0065166,39.9994129 37.0130272,39.9987619 37.019531,39.998047 L38.175781,44.369141 L34.953125,42.298828 C34.9838118,42.2021717 34.9996176,42.1014099 35,42 C35,41.4477153 34.5522847,41 34,41 C33.7524816,41.0000668 33.5137832,41.0919272 33.330078,41.257812 L31.298828,39.953125 C31.7156073,39.8226167 31.9994837,39.4367346 32,39 C32,38.4477153 31.5522847,38 31,38 C30.4477153,38 30,38.4477153 30,39 C30.0005552,39.0424822 30.0038171,39.0848858 30.009766,39.126953 L25.541016,36.257812 C25.2114789,36.0458536 24.7885211,36.0458536 24.458984,36.257812 L19.992188,39.125 C19.9974013,39.0835375 20.0000104,39.041789 20,39 C20,38.4477153 19.5522847,38 19,38 C18.4477153,38 18,38.4477153 18,39 C18.0007835,39.4372647 18.2855729,39.8233125 18.703125,39.953125 L16.669922,41.257812 C16.4862168,41.0919272 16.2475184,41.0000668 16,41 C15.4477153,41 15,41.4477153 15,42 C15.0001838,42.102065 15.0159919,42.2035003 15.046875,42.300781 L11.824219,44.369141 L12.980469,40 C12.9869792,40.0000636 12.9934898,40.0000636 13,40 C13.5522847,40 14,39.5522847 14,39 C13.9995882,38.6343222 13.7996103,38.2980296 13.478516,38.123047 L15.414062,30.808594 C15.5843476,30.9325023 15.7894052,30.9994876 16,31 C16.5522847,31 17,30.5522847 17,30 C17,29.4477153 16.5522847,29 16,29 C15.849672,29.0008325 15.7014661,29.0355472 15.566406,29.101562 C15.5056642,28.9962861 15.4262411,28.9029642 15.332031,28.826172 L13.810547,27.582031 C13.932981,27.4125917 13.9992366,27.2090434 14,27 C14,26.4477153 13.5522847,26 13,26 C12.7219447,26.0003003 12.4565688,26.1163578 12.267578,26.320312 L10.492188,24.869141 C10.8055642,24.6919536 10.9995146,24.3599997 11,24 C11,23.4477153 10.5522847,23 10,23 C9.56786018,23.0005789 9.18498066,23.2786785 9.0507812,23.689453 L6.984375,22 C6.98958325,22.0000407 6.99479175,22.0000407 7,22 C7.55228475,22 8,21.5522847 8,21 C8,20.4477153 7.55228475,20 7,20 C6.44771525,20 6,20.4477153 6,21 C6.0000282,21.0722511 6.00788659,21.1442863 6.0234375,21.214844 L3.640625,19.265625 L15.259766,18.671875 C15.4492148,18.8807205 15.7180297,18.9998786 16,19 C16.3178611,18.9995551 16.6165789,18.8480212 16.804688,18.591797 L18.650391,18.498047 C19.0445038,18.4785515 19.390311,18.2291416 19.533203,17.861328 L21.476562,12.851562 C21.6339689,12.9484678 21.815155,12.9998491 22,13 C22.5522847,13 23,12.5522847 23,12 C23.0000756,11.5199567 22.6590296,11.1075861 22.1875,11.017578 L25,3.7636719 Z M25,8 C24.4477153,8 24,8.44771525 24,9 C24,9.55228475 24.4477153,10 25,10 C25.5522847,10 26,9.55228475 26,9 C26,8.44771525 25.5522847,8 25,8 Z M25,14 C24.4477153,14 24,14.4477153 24,15 C24,15.5522847 24.4477153,16 25,16 C25.5522847,16 26,15.5522847 26,15 C26,14.4477153 25.5522847,14 25,14 Z M22,17 C21.4477153,17 21,17.4477153 21,18 C21,18.5522847 21.4477153,19 22,19 C22.5522847,19 23,18.5522847 23,18 C23,17.4477153 22.5522847,17 22,17 Z M28,17 C27.4477153,17 27,17.4477153 27,18 C27,18.5522847 27.4477153,19 28,19 C28.5522847,19 29,18.5522847 29,18 C29,17.4477153 28.5522847,17 28,17 Z M13,20 C12.4477153,20 12,20.4477153 12,21 C12,21.5522847 12.4477153,22 13,22 C13.5522847,22 14,21.5522847 14,21 C14,20.4477153 13.5522847,20 13,20 Z M19,20 C18.4477153,20 18,20.4477153 18,21 C18,21.5522847 18.4477153,22 19,22 C19.5522847,22 20,21.5522847 20,21 C20,20.4477153 19.5522847,20 19,20 Z M25,20 C24.4477153,20 24,20.4477153 24,21 C24,21.5522847 24.4477153,22 25,22 C25.5522847,22 26,21.5522847 26,21 C26,20.4477153 25.5522847,20 25,20 Z M31,20 C30.4477153,20 30,20.4477153 30,21 C30,21.5522847 30.4477153,22 31,22 C31.5522847,22 32,21.5522847 32,21 C32,20.4477153 31.5522847,20 31,20 Z M37,20 C36.4477153,20 36,20.4477153 36,21 C36,21.5522847 36.4477153,22 37,22 C37.5522847,22 38,21.5522847 38,21 C38,20.4477153 37.5522847,20 37,20 Z M16,23 C15.4477153,23 15,23.4477153 15,24 C15,24.5522847 15.4477153,25 16,25 C16.5522847,25 17,24.5522847 17,24 C17,23.4477153 16.5522847,23 16,23 Z M22,23 C21.4477153,23 21,23.4477153 21,24 C21,24.5522847 21.4477153,25 22,25 C22.5522847,25 23,24.5522847 23,24 C23,23.4477153 22.5522847,23 22,23 Z M28,23 C27.4477153,23 27,23.4477153 27,24 C27,24.5522847 27.4477153,25 28,25 C28.5522847,25 29,24.5522847 29,24 C29,23.4477153 28.5522847,23 28,23 Z M34,23 C33.4477153,23 33,23.4477153 33,24 C33,24.5522847 33.4477153,25 34,25 C34.5522847,25 35,24.5522847 35,24 C35,23.4477153 34.5522847,23 34,23 Z M19,26 C18.4477153,26 18,26.4477153 18,27 C18,27.5522847 18.4477153,28 19,28 C19.5522847,28 20,27.5522847 20,27 C20,26.4477153 19.5522847,26 19,26 Z M25,26 C24.4477153,26 24,26.4477153 24,27 C24,27.5522847 24.4477153,28 25,28 C25.5522847,28 26,27.5522847 26,27 C26,26.4477153 25.5522847,26 25,26 Z M31,26 C30.4477153,26 30,26.4477153 30,27 C30,27.5522847 30.4477153,28 31,28 C31.5522847,28 32,27.5522847 32,27 C32,26.4477153 31.5522847,26 31,26 Z M22,29 C21.4477153,29 21,29.4477153 21,30 C21,30.5522847 21.4477153,31 22,31 C22.5522847,31 23,30.5522847 23,30 C23,29.4477153 22.5522847,29 22,29 Z M28,29 C27.4477153,29 27,29.4477153 27,30 C27,30.5522847 27.4477153,31 28,31 C28.5522847,31 29,30.5522847 29,30 C29,29.4477153 28.5522847,29 28,29 Z M19,32 C18.4477153,32 18,32.4477153 18,33 C18,33.5522847 18.4477153,34 19,34 C19.5522847,34 20,33.5522847 20,33 C20,32.4477153 19.5522847,32 19,32 Z M25,32 C24.4477153,32 24,32.4477153 24,33 C24,33.5522847 24.4477153,34 25,34 C25.5522847,34 26,33.5522847 26,33 C26,32.4477153 25.5522847,32 25,32 Z M31,32 C30.4477153,32 30,32.4477153 30,33 C30,33.5522847 30.4477153,34 31,34 C31.5522847,34 32,33.5522847 32,33 C32,32.4477153 31.5522847,32 31,32 Z M16,35 C15.4477153,35 15,35.4477153 15,36 C15,36.5522847 15.4477153,37 16,37 C16.5522847,37 17,36.5522847 17,36 C17,35.4477153 16.5522847,35 16,35 Z M22,35 C21.4477153,35 21,35.4477153 21,36 C21,36.5522847 21.4477153,37 22,37 C22.5522847,37 23,36.5522847 23,36 C23,35.4477153 22.5522847,35 22,35 Z M28,35 C27.4477153,35 27,35.4477153 27,36 C27,36.5522847 27.4477153,37 28,37 C28.5522847,37 29,36.5522847 29,36 C29,35.4477153 28.5522847,35 28,35 Z M34,35 C33.4477153,35 33,35.4477153 33,36 C33,36.5522847 33.4477153,37 34,37 C34.5522847,37 35,36.5522847 35,36 C35,35.4477153 34.5522847,35 34,35 Z" id="Shape"></path>
        </g>
    </g>
</svg>